<svg width="95" height="81" viewBox="0 0 95 81" fill="none" xmlns="http://www.w3.org/2000/svg">
<path fill-rule="evenodd" clip-rule="evenodd" d="M33 6.01501L36.7334 7.31866L36.1463 9H33V6.01501ZM21.877 37.7311L32.957 6L33 6.01501V6H62V6.22027L58.4041 7.47592L58.9363 9H36.1463L28.2677 31.5628L21.877 37.7311ZM73.2476 37.8513L62.1805 6.15725L62 6.22027V9H58.9363L66.8569 31.6831L58.6116 23.7247C52.4122 17.7412 42.5879 17.7412 36.3885 23.7247L28.2677 31.5628L24.7764 41.5612L21 40.2425L21.877 37.7311L19.2799 40.2377C8.92495 50.2322 16 67.75 30.3915 67.75H64.6085C79 67.75 86.0751 50.2322 75.7201 40.2377L73.2476 37.8513ZM73.2476 37.8513L73.7334 39.2425L69.957 40.5612L66.8569 31.6831L73.2476 37.8513ZM45 42H52V45H45V42Z" fill="#ED1F53"/>
</svg>
