<svg width="400" height="44" viewBox="0 0 400 44" fill="none" xmlns="http://www.w3.org/2000/svg">
<g clip-path="url(#clip0)">
<rect width="400" height="43.4935" fill="#FFFDFC" fill-opacity="0.01"/>
<path d="M247.452 22.616H254.588V23.704H249.004V27.096H254.06V28.184H249.004V33H247.452V22.616ZM261.829 22.616H263.621L267.653 33H266.037L264.853 29.848H260.405L259.237 33H257.701L261.829 22.616ZM264.469 28.776L262.709 24.088H262.565L260.805 28.776H264.469ZM274.634 33.16C273.749 33.16 272.693 33.0747 271.466 32.904V31.608C272.704 31.8747 273.792 32.008 274.73 32.008C275.52 32.008 276.096 31.9227 276.458 31.752C276.821 31.5707 277.002 31.24 277.002 30.76V29.416C277.002 28.968 276.874 28.6533 276.618 28.472C276.362 28.2907 275.914 28.2 275.274 28.2H274.058C273.045 28.2 272.325 27.9973 271.898 27.592C271.472 27.1867 271.258 26.5573 271.258 25.704V24.872C271.258 24.3067 271.381 23.848 271.626 23.496C271.882 23.144 272.304 22.8827 272.89 22.712C273.488 22.5413 274.304 22.456 275.338 22.456C276.032 22.456 276.922 22.5147 278.01 22.632V23.8C276.794 23.6187 275.866 23.528 275.226 23.528C274.234 23.528 273.578 23.624 273.258 23.816C272.928 24.0187 272.762 24.3547 272.762 24.824V26.008C272.762 26.3707 272.89 26.6373 273.146 26.808C273.413 26.968 273.866 27.048 274.506 27.048H275.754C276.469 27.048 277.024 27.1333 277.418 27.304C277.824 27.4747 278.106 27.736 278.266 28.088C278.437 28.4293 278.522 28.8933 278.522 29.48V30.232C278.522 30.968 278.384 31.5493 278.106 31.976C277.84 32.4027 277.424 32.7067 276.858 32.888C276.293 33.0693 275.552 33.16 274.634 33.16ZM283.152 22.616H284.704V27.096H290.224V22.616H291.776V33H290.224V28.184H284.704V33H283.152V22.616ZM296.864 22.616H298.416V33H296.864V22.616ZM315.674 22.616H317.546L323.194 31.192V22.616H324.554V33H322.682L317.034 24.28V33H315.674V22.616Z" fill="#5F5959"/>
<path d="M113.132 9.338H119.136L125.748 29.06H125.9L132.512 9.338H138.364L129.244 34H121.986L113.132 9.338ZM146.727 9.338H152.655V34H146.727V9.338ZM161.011 9.338H167.015L173.627 29.06H173.779L180.391 9.338H186.243L177.123 34H169.865L161.011 9.338ZM194.605 9.338H200.533V34H194.605V9.338ZM211.549 9.338H222.037C224.925 9.338 227.205 9.566 228.877 10.022C230.549 10.4527 231.778 11.2127 232.563 12.302C233.349 13.3913 233.741 14.8987 233.741 16.824V26.856C233.741 28.7307 233.374 30.1873 232.639 31.226C231.905 32.2393 230.701 32.9613 229.029 33.392C227.357 33.7973 225.039 34 222.075 34H211.549V9.338ZM221.809 29.782C223.431 29.782 224.647 29.7187 225.457 29.592C226.293 29.44 226.889 29.1613 227.243 28.756C227.623 28.3507 227.813 27.7173 227.813 26.856V16.71C227.813 15.5447 227.345 14.734 226.407 14.278C225.495 13.7967 224.026 13.556 221.999 13.556H217.477V29.782H221.809Z" fill="black"/>
<circle cx="308" cy="28" r="6" fill="#ED1F53" fill-opacity="0.69"/>
</g>
<defs>
<clipPath id="clip0">
<rect width="400" height="43.4935" fill="white"/>
</clipPath>
</defs>
</svg>
